<?xml version="1.0" encoding="UTF-8" standalone="no"?>
<svg viewBox="0 0 157.58086 258.42099" xmlns="http://www.w3.org/2000/svg">
<title>Shoe Print</title>
<g transform="translate(-17.13034,107.05168)">
<path d="m74.60246,12.75377c-10.97,3.88788-20.65643,6.36697-34.57123,10.79215 5.45577,69.54683 69.32662,41.81953 34.57123-10.79215zm-3.16423-12.61907c.18684-9.66328-.31101-18.97723 3.78104-28.16373 4.6484-9.85066 5.39125-18.49096 2.81967-32.79632-4.67729-26.01927-14.56477-42.24105-27.91782-45.80308-28.48249-4.2447-32.01048,24.30925-32.70088,45.19548-1.57227,11.68897 8.1067,61.7118 19.81144,70.18505 11.50234-3.0035 22.79547-5.95036 34.20655-8.6174z"/>
<path d="m109.678,96.54531c10.97,3.88788 20.65643,6.36698 34.57123,10.79215-5.45576,69.54683-69.32661,41.81954-34.57123-10.79215zm3.16424-12.61907c-.18684-9.66328.31101-18.97723-3.78105-28.16373-4.6484-9.85066-5.39125-18.49096-2.81967-32.79632 4.67729-26.01927 14.56477-42.24106 27.91782-45.80308 28.48249-4.2447 32.01048,24.30925 32.70088,45.19549 1.57227,11.68897-8.1067,61.7118-19.81144,70.18505-11.50233-3.00349-22.79547-5.95036-34.20654-8.6174z"/>
</g>
</svg>
